<svg id="Layer_1" data-name="Layer 1" xmlns="http://www.w3.org/2000/svg" viewBox="0 0 51.17 44.78"><defs><style>.cls-1{fill:#856e42;}</style></defs><title>Untitled-9</title><path class="cls-1" d="M36.89,3.45a11.87,11.87,0,0,1,8,20.65l-0.05,0,0,0-16,16A12.41,12.41,0,0,1,26,42.54a12.43,12.43,0,0,1-2.79-2.36l-16-16-0.07-.07-0.06-.06a12.72,12.72,0,0,1-3.83-8.76,11.86,11.86,0,0,1,20.65-8L26,9.65l2.1-2.31a11.89,11.89,0,0,1,8.79-3.89m0-2.83A14.67,14.67,0,0,0,26,5.43,14.7,14.7,0,0,0,.41,15.31,15.43,15.43,0,0,0,5.21,26.2l16,16c1.6,1.6,3.2,3.2,4.8,3.2s3.2-1.6,4.8-3.2l16-16A14.7,14.7,0,0,0,36.89.61h0Z" transform="translate(-0.41 -0.61)"/><path class="cls-1" d="M42.59,22.91a1.42,1.42,0,0,1-1-2.45l0.11-.11A7.13,7.13,0,0,0,37,7.91a1.42,1.42,0,0,1,0-2.83,10,10,0,0,1,6.7,17.35l-0.09.09A1.42,1.42,0,0,1,42.59,22.91Z" transform="translate(-0.41 -0.61)"/><path class="cls-1" d="M26,30.55a1.42,1.42,0,0,1-1.42-1.42V16.22a1.42,1.42,0,0,1,2.83,0V29.13A1.42,1.42,0,0,1,26,30.55Z" transform="translate(-0.41 -0.61)"/><path class="cls-1" d="M32.46,24.09H19.54a1.42,1.42,0,0,1,0-2.83H32.46A1.42,1.42,0,0,1,32.46,24.09Z" transform="translate(-0.41 -0.61)"/></svg>