<?xml version="1.0" encoding="utf-8"?>
<!-- Generator: Adobe Illustrator 19.2.0, SVG Export Plug-In . SVG Version: 6.00 Build 0)  -->
<svg version="1.1" id="Layer_1" xmlns="http://www.w3.org/2000/svg" xmlns:xlink="http://www.w3.org/1999/xlink" x="0px" y="0px"
	 viewBox="0 0 48 52" style="enable-background:new 0 0 48 52;" xml:space="preserve">
<style type="text/css">
	.st0{opacity:0.2;}
	.st1{fill:#020202;}
</style>
<g class="st0">
	<path class="st1" d="M41.7,11.7c0.1-0.1,0.2-0.1,0.3-0.2l1.2-1.2l1.2,1.2c0.3,0.3,0.6,0.4,1,0.4s0.7-0.1,1-0.4c0.6-0.6,0.6-1.5,0-2
		L42,5.1c-0.6-0.6-1.5-0.6-2,0c-0.6,0.6-0.6,1.5,0,2l1.2,1.2L40,9.5c-0.1,0.1-0.2,0.2-0.2,0.4c-4-3.5-9.2-5.7-14.9-5.9
		c0.2-0.3,0.4-1,0.4-1h3c0.8,0,1.5-0.7,1.5-1.5S29,0,28.2,0h-9c-0.8,0-1.5,0.7-1.5,1.5S18.4,3,19.2,3h3c0,0,0.1,0.7,0.4,1
		C10,4.7-0.1,15.2-0.1,28c0,13.3,10.8,24,24,24S48,41.2,48,28C48,21.7,45.6,16,41.7,11.7z M24,49.2C12.3,49.2,2.8,39.7,2.8,28
		C2.8,16.3,12.3,6.8,24,6.8S45.2,16.3,45.2,28S35.7,49.2,24,49.2z"/>
	<path class="st1" d="M33.2,26H26V14c0-0.8-0.7-1.5-1.5-1.5S23,13.1,23,14v15h10.2c0.8,0,1.5-0.7,1.5-1.5S34,26,33.2,26z"/>
</g>
</svg>
