<?xml version="1.0" encoding="utf-8"?>
<!-- Generator: Adobe Illustrator 19.2.0, SVG Export Plug-In . SVG Version: 6.00 Build 0)  -->
<svg version="1.1" id="Layer_1" xmlns="http://www.w3.org/2000/svg" xmlns:xlink="http://www.w3.org/1999/xlink" x="0px" y="0px"
	 viewBox="0 0 86 68" style="enable-background:new 0 0 86 68;" xml:space="preserve">
<style type="text/css">
	.st0{opacity:0.2;}
	.st1{fill:none;}
	.st2{fill:#020202;}
	.st3{fill:#FFFFFF;}
</style>
<g class="st0">
	<path class="st1" d="M18.9,48.4L13,50.9v7.9l5.5-4.2c0.4-0.3,0.9-0.3,1.2,0l5.3,4.1V51L18.9,48.4z"/>
	<path class="st1" d="M66.9,48.4L61,50.9v7.9l5.5-4.2c0.4-0.3,0.9-0.3,1.2,0l5.3,4.1V51L66.9,48.4z"/>
	<path class="st2" d="M85.4,25.6c-0.1-0.1-0.1-0.2-0.3-0.3l-7.2-3L75,15c-0.1-0.1-0.1-0.2-0.3-0.3c-0.1-0.1-0.3-0.1-0.4,0l-7.2,3
		l-0.4-0.2l0.5-1.2c0.1-0.3,0.1-0.7,0-1.1c-0.1-0.3-0.4-0.6-0.8-0.8l-8.9-3.7l-3.7-8.9c-0.1-0.3-0.4-0.6-0.8-0.8
		c-0.3-0.1-0.7-0.1-1.1,0l-8.9,3.7l-8.9-3.7c-0.3-0.1-0.7-0.1-1.1,0c-0.3,0.1-0.6,0.4-0.8,0.8l-3.7,8.9l-8.9,3.7
		c-0.7,0.3-1.1,1.1-0.8,1.8l0.6,1.4l-0.4,0.2l-7.2-3c-0.1-0.1-0.3-0.1-0.4,0c-0.1,0.1-0.2,0.1-0.3,0.3l-3,7.2l-7.2,3
		c-0.3,0.1-0.4,0.4-0.3,0.7l3,7.2l-3,7.2c-0.1,0.1-0.1,0.3,0,0.4s0.1,0.2,0.3,0.3l7.2,3L11,51v9.7c0,0.4,0.2,0.7,0.6,0.9
		c0.3,0.2,0.7,0.1,1-0.1l6.5-4.9l6.3,4.9c0.2,0.1,0.4,0.2,0.6,0.2c0.1,0,0.3,0,0.4-0.1c0.3-0.2,0.6-0.5,0.6-0.9V50.7l2.8-6.7
		l0.4-0.2l1.8,4.4v17.4c0,0.6,0.3,1.1,0.8,1.3c0.5,0.3,1.1,0.2,1.6-0.1l8.8-6.2l8.5,6.2c0.3,0.2,0.6,0.3,0.9,0.3
		c0.2,0,0.5-0.1,0.7-0.2c0.5-0.3,0.8-0.8,0.8-1.3V48.2c0-0.1,0-0.2,0-0.2l1.8-4.2l0.4,0.2L59,51v9.7c0,0.4,0.2,0.7,0.6,0.9
		c0.3,0.2,0.7,0.1,1-0.1l6.5-4.9l6.3,4.9c0.2,0.1,0.4,0.2,0.6,0.2c0.1,0,0.3,0,0.4-0.1c0.3-0.2,0.6-0.5,0.6-0.9V50.7l2.8-6.7l7.2-3
		c0.3-0.1,0.4-0.4,0.3-0.7l-3-7.2l3-7.2C85.4,25.8,85.4,25.7,85.4,25.6z M51.6,46.2l-8.1-3.4c-0.2-0.1-0.4-0.1-0.5-0.1
		c-0.2,0-0.4,0-0.5,0.1l-8.2,3.3L30.9,38c-0.1-0.3-0.4-0.6-0.8-0.8l-8.1-3.4l3.4-8.1c0.1-0.3,0.1-0.7,0-1.1L22,16.4l8.2-3.3
		c0.3-0.1,0.6-0.4,0.8-0.8l3.4-8.1l8.1,3.4c0.3,0.1,0.7,0.1,1.1,0l8.2-3.3l3.3,8.2c0.1,0.3,0.4,0.6,0.8,0.8l8.1,3.4l-3.4,8.1
		c-0.1,0.3-0.1,0.7,0,1.1L64,34l-8.2,3.3c-0.3,0.1-0.6,0.4-0.8,0.8L51.6,46.2z M19.1,43.8c-5.9,0-10.7-4.8-10.7-10.7
		c0-5.9,4.8-10.7,10.7-10.7c0.8,0,1.6,0.1,2.4,0.3l1,2.4l-0.1,0.2c-1-0.4-2.1-0.7-3.3-0.7c-4.7,0-8.5,3.8-8.5,8.5
		c0,4.7,3.8,8.5,8.5,8.5c2.7,0,5.1-1.2,6.6-3.2l2.1,0.9C25.9,42.1,22.7,43.8,19.1,43.8z M67.1,43.8c-3.6,0-6.8-1.8-8.7-4.5l2.1-0.9
		c1.6,1.9,3.9,3.2,6.6,3.2c4.7,0,8.5-3.8,8.5-8.5c0-4.7-3.8-8.5-8.5-8.5c-1.3,0-2.5,0.3-3.6,0.8l0-0.1l1.1-2.6
		c0.8-0.2,1.7-0.3,2.6-0.3c5.9,0,10.7,4.8,10.7,10.7C77.9,39,73,43.8,67.1,43.8z M19.7,54.6c-0.4-0.3-0.9-0.3-1.2,0L13,58.8v-7.9
		l5.9-2.4L25,51v7.7L19.7,54.6z M67.7,54.6c-0.4-0.3-0.9-0.3-1.2,0L61,58.8v-7.9l5.9-2.4L73,51v7.7L67.7,54.6z"/>
	<path class="st3" d="M25.8,38.4c-1.6,1.9-4,3.2-6.6,3.2c-4.7,0-8.5-3.8-8.5-8.5c0-4.7,3.8-8.5,8.5-8.5c1.2,0,2.3,0.2,3.3,0.7
		l0.1-0.2l-1-2.4c-0.8-0.2-1.6-0.3-2.4-0.3c-5.9,0-10.7,4.8-10.7,10.7c0,5.9,4.8,10.7,10.7,10.7c3.6,0,6.8-1.8,8.7-4.5L25.8,38.4z"
		/>
	<path class="st3" d="M67.1,22.4c-0.9,0-1.7,0.1-2.6,0.3l-1.1,2.6l0,0.1c1.1-0.5,2.3-0.8,3.6-0.8c4.7,0,8.5,3.8,8.5,8.5
		c0,4.7-3.8,8.5-8.5,8.5c-2.7,0-5.1-1.2-6.6-3.2l-2.1,0.9c1.9,2.7,5.1,4.5,8.7,4.5c5.9,0,10.7-4.8,10.7-10.7
		C77.9,27.2,73,22.4,67.1,22.4z"/>
	<path class="st3" d="M55,38.1c0.1-0.3,0.4-0.6,0.8-0.8L64,34l-3.3-8.2c-0.1-0.3-0.1-0.7,0-1.1l3.4-8.1l-8.1-3.4
		c-0.3-0.1-0.6-0.4-0.8-0.8l-3.3-8.2l-8.2,3.3c-0.3,0.1-0.7,0.1-1.1,0l-8.1-3.4L31,12.3c-0.1,0.3-0.4,0.6-0.8,0.8L22,16.4l3.3,8.2
		c0.1,0.3,0.1,0.7,0,1.1l-3.4,8.1l8.1,3.4c0.3,0.1,0.6,0.4,0.8,0.8l3.3,8.2l8.2-3.3c0.2-0.1,0.4-0.1,0.5-0.1c0.2,0,0.4,0,0.5,0.1
		l8.1,3.4L55,38.1z M29.4,25.2c0-7.6,6.2-13.7,13.7-13.7s13.7,6.2,13.7,13.7c0,7.6-6.2,13.7-13.7,13.7S29.4,32.8,29.4,25.2z"/>
	<path class="st3" d="M43.1,36.1c6,0,10.9-4.9,10.9-10.9c0-6-4.9-10.9-10.9-10.9s-10.9,4.9-10.9,10.9C32.3,31.2,37.1,36.1,43.1,36.1
		z"/>
	<path class="st2" d="M43.1,38.9c7.6,0,13.7-6.2,13.7-13.7c0-7.6-6.2-13.7-13.7-13.7s-13.7,6.2-13.7,13.7
		C29.4,32.8,35.6,38.9,43.1,38.9z M43.1,14.3c6,0,10.9,4.9,10.9,10.9c0,6-4.9,10.9-10.9,10.9s-10.9-4.9-10.9-10.9
		C32.3,19.2,37.1,14.3,43.1,14.3z"/>
</g>
</svg>
