<?xml version="1.0" encoding="utf-8"?>
<!-- Generator: Adobe Illustrator 19.2.0, SVG Export Plug-In . SVG Version: 6.00 Build 0)  -->
<svg version="1.1" id="Layer_1" xmlns="http://www.w3.org/2000/svg" xmlns:xlink="http://www.w3.org/1999/xlink" x="0px" y="0px"
	 viewBox="0 0 82 64" style="enable-background:new 0 0 82 64;" xml:space="preserve">
<style type="text/css">
	.st0{opacity:0.2;}
	.st1{fill:#020202;}
</style>
<g class="st0">
	<path class="st1" d="M44.3,4.7C29.3,4.7,17,16.9,17,32s12.2,27.3,27.3,27.3S71.6,47.1,71.6,32S59.4,4.7,44.3,4.7z M44.3,56.5
		c-13.5,0-24.5-11-24.5-24.5s11-24.5,24.5-24.5s24.5,11,24.5,24.5S57.8,56.5,44.3,56.5z"/>
	<path class="st1" d="M55.9,17.7c-0.5,0.6-0.5,1.5,0.1,2c3.4,3.2,5.3,7.6,5.3,12.3c0,9.3-7.6,16.9-16.9,16.9S27.4,41.3,27.4,32
		S35,15.1,44.3,15.1c2.3,0,4.5,0.5,6.6,1.3c0.7,0.3,1.6,0,1.9-0.7c0.3-0.7,0-1.6-0.7-1.9c-2.5-1-5.1-1.6-7.7-1.6
		c-10.9,0-19.8,8.9-19.8,19.8s8.9,19.8,19.8,19.8S64.1,42.9,64.1,32c0-5.4-2.3-10.7-6.2-14.4C57.3,17.1,56.4,17.1,55.9,17.7z"/>
	<path class="st1" d="M11.5,0C10.7,0,10,0.7,10,1.5V12H8V1.5C8,0.7,7.3,0,6.5,0S5,0.7,5,1.5V12H3V1.5C3,0.7,2.3,0,1.5,0S0,0.7,0,1.5
		v10v3V18c0,3.1,2,5.7,5,6.4v38.2C5,63.3,5.7,64,6.5,64S8,63.3,8,62.5V24.3c3-0.7,5-3.3,5-6.5v-3.4v-3v-10C13,0.7,12.3,0,11.5,0z
		 M10,17.9c0,2-1.6,3.6-3.5,3.6c-2,0-3.5-1.6-3.5-3.5v-3h7V17.9z"/>
	<path class="st1" d="M81,1c-3.6,0-7,2-7,5.6v25.5l5,4.3v26c0,0.8,0.7,1.5,1.5,1.5s1.5-0.7,1.5-1.5V35.8c0,0,0,0,0,0V1H81z M79,32.5
		l-2-1.7V6.6c0-1.4,1-2.7,2-3.3V32.5z"/>
</g>
</svg>
